<svg width="2210" height="734" viewBox="0 0 2210 734" fill="none" xmlns="http://www.w3.org/2000/svg">
<path d="M272.674 1.00464C272.674 1.00464 444.681 493.626 817.575 448.504C1190.47 403.383 1351.58 462.005 1484.57 541.594C1617.56 621.184 1633.57 594.281 1700.45 550.39" stroke="#1B2D7C" stroke-linecap="round"/>
<path d="M1 435.173C1 435.173 452.503 477.924 798.751 406.462C1145 335 1231.97 690.275 1380.73 598.637C1529.5 507 1638.86 721.999 1718.93 638.25C1799 554.5 1803.5 545 1857.49 583.456C1909.83 620.737 2152 760 2209.38 635.725" stroke="#267844" stroke-linecap="round"/>
<path d="M95.1567 585.505C95.1567 585.505 218.533 530.056 591.427 484.935C964.321 439.813 1155.62 611.233 1207.24 635.595C1258.86 659.956 1356.24 688.281 1423.11 644.39C1440.15 631.429 1509.41 575.505 1621.19 678.505C1684.41 736.766 1763.25 755.37 1795.58 697.005C1815.24 661.505 1830.77 539.005 1938.4 568.505" stroke="#807500" stroke-linecap="round"/>
</svg>
